# xmcd
#
# Track frame offsets:
#	150
#	20448
#	36244
#	60908
#	74658
#	92691
#	111887
#	131661
#	154892
#	175821
#
# Disc length: 2617 seconds
#
# Revision: 2
# Processed by: cddbd v1.5.1PL0 Copyright (c) Steve Scherf et al.
# Submitted via: MusicWizard 7.0.2
#
DISCID=840a370a
DTITLE=Steve Earle And The Dukes - Copperhead Road
DYEAR=1900
DGENRE=Country
TTITLE0=Copperhead Road
TTITLE1=Snake Oil
TTITLE2=Back To The Wall
TTITLE3=The Devil's Right Hand
TTITLE4=Johnny Come Lately
TTITLE5=Even When I'm Blue
TTITLE6=You Belong To Me
TTITLE7=Waiting On You
TTITLE8=Once You Love
TTITLE9=Nothing But A Child
EXTD=UNI Records/MCA\nupc 5011781342628\nMCAD03426\n
EXTT0=
EXTT1=
EXTT2=
EXTT3=
EXTT4=
EXTT5=
EXTT6=
EXTT7=
EXTT8=
EXTT9=
PLAYORDER=
